<svg width="50" height="50" viewBox="0 0 50 50" fill="none" xmlns="http://www.w3.org/2000/svg">
<g clip-path="url(#clip0_11_201)">
<path d="M21.875 33C28.7793 33 34.375 27.4043 34.375 20.5C34.375 13.5957 28.7793 8 21.875 8C14.9707 8 9.375 13.5957 9.375 20.5C9.375 27.4043 14.9707 33 21.875 33ZM30.625 36.125H28.9941C26.8262 37.1211 24.4141 37.6875 21.875 37.6875C19.3359 37.6875 16.9336 37.1211 14.7559 36.125H13.125C5.87891 36.125 0 42.0039 0 49.25V53.3125C0 55.9004 2.09961 58 4.6875 58H39.0625C41.6504 58 43.75 55.9004 43.75 53.3125V49.25C43.75 42.0039 37.8711 36.125 30.625 36.125Z" fill="black"/>
</g>
<defs>
<clipPath id="clip0_11_201">
<rect width="50" height="50" fill="white"/>
</clipPath>
</defs>
</svg>
