<svg width="50" height="41" viewBox="0 0 50 41" fill="none" xmlns="http://www.w3.org/2000/svg">
<path d="M43.8123 25.625H18.3656L18.9338 28.1875H42.234C43.5709 28.1875 44.5617 29.3327 44.2655 30.5353L43.7866 32.4793C45.409 33.2058 46.5278 34.7401 46.5278 36.5156C46.5278 39.0142 44.3126 41.0355 41.5951 40.9995C39.0063 40.9652 36.8773 39.0271 36.8074 36.6395C36.7692 35.3353 37.3356 34.1531 38.266 33.3124H20.0674C20.9681 34.1265 21.5278 35.2605 21.5278 36.5156C21.5278 39.0631 19.225 41.1146 16.4349 40.995C13.9575 40.8889 11.9426 39.0423 11.8124 36.7575C11.7119 34.9931 12.7183 33.4379 14.2474 32.6266L8.14957 5.125H2.08333C0.932726 5.125 0 4.26455 0 3.20312V1.92187C0 0.860445 0.932726 0 2.08333 0H10.9834C11.9731 0 12.8261 0.642312 13.0245 1.5367L13.8201 5.125H47.9158C49.2527 5.125 50.2436 6.2702 49.9473 7.47281L45.8438 24.1291C45.6282 25.0041 44.785 25.625 43.8123 25.625ZM35.4167 13.4531H31.25V10.25C31.25 9.54235 30.6282 8.96875 29.8611 8.96875H28.4722C27.7051 8.96875 27.0833 9.54235 27.0833 10.25V13.4531H22.9167C22.1496 13.4531 21.5278 14.0267 21.5278 14.7344V16.0156C21.5278 16.7233 22.1496 17.2969 22.9167 17.2969H27.0833V20.5C27.0833 21.2076 27.7051 21.7812 28.4722 21.7812H29.8611C30.6282 21.7812 31.25 21.2076 31.25 20.5V17.2969H35.4167C36.1838 17.2969 36.8056 16.7233 36.8056 16.0156V14.7344C36.8056 14.0267 36.1838 13.4531 35.4167 13.4531Z" fill="black"/>
</svg>
