<svg width="24" height="25" viewBox="0 0 24 25" fill="none" xmlns="http://www.w3.org/2000/svg">
<path d="M21.4286 0H2.57143C1.15179 0 0 1.19978 0 2.67857V22.3214C0 23.8002 1.15179 25 2.57143 25H21.4286C22.8482 25 24 23.8002 24 22.3214V2.67857C24 1.19978 22.8482 0 21.4286 0ZM19.7143 14.0625C19.7143 14.4308 19.425 14.7321 19.0714 14.7321H14.1429V19.8661C14.1429 20.2344 13.8536 20.5357 13.5 20.5357H10.5C10.1464 20.5357 9.85714 20.2344 9.85714 19.8661V14.7321H4.92857C4.575 14.7321 4.28571 14.4308 4.28571 14.0625V10.9375C4.28571 10.5692 4.575 10.2679 4.92857 10.2679H9.85714V5.13393C9.85714 4.76562 10.1464 4.46429 10.5 4.46429H13.5C13.8536 4.46429 14.1429 4.76562 14.1429 5.13393V10.2679H19.0714C19.425 10.2679 19.7143 10.5692 19.7143 10.9375V14.0625Z" fill="black"/>
</svg>
