<svg width="25" height="25" viewBox="0 0 25 25" fill="none" xmlns="http://www.w3.org/2000/svg">
<path d="M12.5825 0C5.95829 0 0.588318 5.42153 0.588318 12.1094C0.588318 18.7972 5.95829 24.2188 12.5825 24.2188C19.2068 24.2188 24.5767 18.7972 24.5767 12.1094C24.5767 5.42153 19.2068 0 12.5825 0ZM18.2476 16.9313C18.1706 17.0225 16.3238 19.1643 12.9348 19.1643C8.83873 19.1643 5.94697 16.0754 5.94697 12.0565C5.94697 8.08662 8.94571 5.05449 12.8998 5.05449C16.1381 5.05449 17.8312 6.87651 17.9017 6.9541C17.9885 7.04965 18.0415 7.17158 18.0524 7.30079C18.0632 7.43 18.0313 7.55919 17.9616 7.66812L16.8792 9.36025C16.6834 9.66626 16.2614 9.71919 15.9973 9.47231C15.9861 9.46187 14.7143 8.3063 13.0046 8.3063C10.7742 8.3063 9.42974 9.9457 9.42974 12.0212C9.42974 13.9549 10.6637 15.9125 13.022 15.9125C14.8936 15.9125 16.1792 14.5288 16.192 14.5147C16.4402 14.243 16.8719 14.269 17.0871 14.5662L18.2743 16.2054C18.3513 16.3118 18.3906 16.4413 18.3858 16.573C18.3809 16.7048 18.3322 16.831 18.2476 16.9313Z" fill="black"/>
</svg>
