<svg width="32" height="42" viewBox="0 0 32 42" fill="none" xmlns="http://www.w3.org/2000/svg">
<path d="M22.0655 21L31.1627 9.05983C32.2791 7.5946 32.2791 5.21898 31.1627 3.75256L29.1409 1.09892C28.0245 -0.366307 26.2145 -0.366307 25.0973 1.09892L16 13.0391L6.90273 1.09892C5.78636 -0.366307 3.97636 -0.366307 2.85909 1.09892L0.837273 3.75256C-0.279091 5.21778 -0.279091 7.59341 0.837273 9.05983L9.93455 21L0.837273 32.9402C-0.279091 34.4054 -0.279091 36.781 0.837273 38.2474L2.85909 40.9011C3.97545 42.3663 5.78636 42.3663 6.90273 40.9011L16 28.9609L25.0973 40.9011C26.2136 42.3663 28.0245 42.3663 29.1409 40.9011L31.1627 38.2474C32.2791 36.7822 32.2791 34.4066 31.1627 32.9402L22.0655 21Z" fill="black"/>
</svg>
