<svg width="26" height="25" viewBox="0 0 26 25" fill="none" xmlns="http://www.w3.org/2000/svg">
<path d="M25.6464 21.6141L20.5831 16.7464C20.3546 16.5267 20.0448 16.4046 19.7198 16.4046H18.892C20.2937 14.6812 21.1265 12.5134 21.1265 10.1553C21.1265 4.54545 16.3985 0 10.5633 0C4.72808 0 0 4.54545 0 10.1553C0 15.7651 4.72808 20.3105 10.5633 20.3105C13.0162 20.3105 15.271 19.5098 17.0637 18.1623V18.9581C17.0637 19.2706 17.1907 19.5684 17.4192 19.7881L22.4825 24.6558C22.9599 25.1147 23.7318 25.1147 24.2041 24.6558L25.6413 23.2741C26.1187 22.8152 26.1187 22.073 25.6464 21.6141ZM10.5633 16.4046C6.97278 16.4046 4.0628 13.612 4.0628 10.1553C4.0628 6.70345 6.9677 3.90587 10.5633 3.90587C14.1538 3.90587 17.0637 6.69856 17.0637 10.1553C17.0637 13.6071 14.1588 16.4046 10.5633 16.4046Z" fill="black"/>
</svg>
